<svg viewBox="0 0 40 40" fill="none" xmlns="http://www.w3.org/2000/svg" xmlns:xlink="http://www.w3.org/1999/xlink" x="0" y="0"><g id="icon">
<circle id="Ellipse 8_2" opacity="0.1" cx="20" cy="20" r="19.5" transform="rotate(-90, 20, 20)" stroke="#141313"/>
<path id="Vector_8" d="M16.1,13.264c-1.2,0.696 -2.14,1.639 -2.84,2.832c-0.69,1.193 -1.04,2.494 -1.04,3.904c0,1.41 0.35,2.711 1.04,3.904c0.7,1.193 1.64,2.137 2.84,2.832c1.19,0.694 2.49,1.042 3.9,1.042c1.41,0 2.71,-0.347 3.9,-1.042c1.2,-0.696 2.14,-1.639 2.84,-2.832c0.69,-1.193 1.04,-2.494 1.04,-3.904c0,-1.41 -0.35,-2.711 -1.04,-3.904c-0.7,-1.193 -1.64,-2.137 -2.84,-2.832c-1.19,-0.695 -2.49,-1.042 -3.9,-1.042c-1.41,0 -2.71,0.347 -3.9,1.042zM13.51,20c0,-1.556 0.5,-2.934 1.5,-4.138c0.91,0.716 1.66,1.778 2.25,3.189c-1.41,0.779 -2.59,1.624 -3.53,2.536c-0.14,-0.53 -0.22,-1.057 -0.22,-1.587zM15.96,25.048c-0.74,-0.587 -1.32,-1.288 -1.73,-2.109c0.93,-0.942 2.1,-1.808 3.5,-2.598c0.47,1.556 0.7,3.2 0.7,4.932c0,0.446 -0.01,0.783 -0.03,1.011c-0.89,-0.238 -1.71,-0.651 -2.44,-1.236zM20,26.487c-0.04,0 -0.09,-0.003 -0.16,-0.008c-0.06,-0.006 -0.11,-0.008 -0.15,-0.008c0.01,-0.197 0.01,-0.498 0.01,-0.903c0,-2.073 -0.28,-4.002 -0.85,-5.786c0.29,-0.145 0.62,-0.296 0.98,-0.451c0.23,1.027 0.78,2.08 1.66,3.159c0.89,1.078 1.81,1.866 2.79,2.363c-1.24,1.089 -2.66,1.634 -4.28,1.634zM26.49,20c0,1.473 -0.46,2.795 -1.37,3.967c-0.92,-0.467 -1.81,-1.185 -2.65,-2.155c-0.84,-0.969 -1.36,-1.931 -1.57,-2.885c1.66,-0.601 3.38,-1.006 5.15,-1.214c0.29,0.758 0.44,1.52 0.44,2.287zM23.41,14.493c0.83,0.518 1.51,1.187 2.04,2.007c-1.62,0.187 -3.2,0.544 -4.73,1.073c-0.06,-0.725 -0.08,-1.373 -0.08,-1.945c0,-0.621 0.02,-1.311 0.08,-2.068c0.96,0.104 1.86,0.415 2.69,0.933zM19.52,15.458c0,0.902 0.03,1.737 0.11,2.504c-0.51,0.198 -0.93,0.374 -1.26,0.529c-0.71,-1.607 -1.56,-2.747 -2.57,-3.421c1.1,-0.934 2.35,-1.442 3.76,-1.525c-0.03,0.632 -0.04,1.27 -0.04,1.913z" fill="#141313"/>
</g></svg>