<svg viewBox="0 0 40 40" fill="none" xmlns="http://www.w3.org/2000/svg" xmlns:xlink="http://www.w3.org/1999/xlink" x="0" y="0"><g id="Instagram">
<circle id="Ellipse 8_3" opacity="0.1" cx="20" cy="20" r="19.5" transform="rotate(-90, 20, 20)" stroke="#141313"/>
<g id="instagram icon">
<path id="Vector_9" d="M16.72,12.509c-0.81,0.036 -1.37,0.167 -1.85,0.356c-0.52,0.194 -0.98,0.493 -1.36,0.885c-0.39,0.383 -0.69,0.846 -0.88,1.355c-0.19,0.487 -0.32,1.044 -0.36,1.857c-0.04,0.82 -0.05,1.08 -0.05,3.159c0,2.079 0.01,2.339 0.05,3.155c0.03,0.814 0.16,1.373 0.35,1.858c0.2,0.514 0.5,0.975 0.89,1.358c0.38,0.388 0.84,0.69 1.35,0.882c0.49,0.188 1.05,0.32 1.86,0.356c0.82,0.039 1.08,0.048 3.16,0.048c2.08,0 2.34,-0.009 3.15,-0.045c0.82,-0.036 1.38,-0.168 1.86,-0.356c0.52,-0.195 0.98,-0.497 1.36,-0.885c0.39,-0.383 0.69,-0.847 0.88,-1.355c0.19,-0.488 0.32,-1.044 0.36,-1.858c0.03,-0.816 0.04,-1.077 0.04,-3.155c0,-2.079 -0.01,-2.339 -0.04,-3.156c-0.04,-0.813 -0.17,-1.373 -0.36,-1.857c-0.4,-1.029 -1.21,-1.843 -2.24,-2.241c-0.49,-0.188 -1.04,-0.32 -1.86,-0.355c-0.81,-0.036 -1.07,-0.045 -3.15,-0.045c-2.08,0 -2.34,0.003 -3.16,0.039zM22.97,13.887c0.75,0.033 1.16,0.159 1.43,0.264c0.66,0.257 1.19,0.786 1.45,1.453c0.1,0.27 0.23,0.676 0.26,1.421c0.04,0.808 0.05,1.05 0.05,3.093c0,2.043 -0.01,2.288 -0.05,3.093c-0.03,0.747 -0.16,1.151 -0.26,1.42c-0.12,0.332 -0.32,0.634 -0.57,0.88c-0.25,0.254 -0.55,0.448 -0.88,0.571c-0.27,0.105 -0.68,0.23 -1.42,0.263c-0.81,0.036 -1.05,0.045 -3.09,0.045c-2.05,0 -2.29,-0.009 -3.1,-0.045c-0.75,-0.033 -1.15,-0.158 -1.42,-0.263c-0.33,-0.123 -0.63,-0.317 -0.88,-0.574c-0.25,-0.249 -0.45,-0.548 -0.57,-0.88c-0.1,-0.269 -0.23,-0.676 -0.26,-1.421c-0.04,-0.807 -0.05,-1.049 -0.05,-3.092c0,-2.046 0.01,-2.288 0.05,-3.093c0.03,-0.748 0.16,-1.151 0.26,-1.421c0.12,-0.332 0.32,-0.634 0.57,-0.879c0.25,-0.254 0.55,-0.449 0.88,-0.571c0.27,-0.105 0.68,-0.231 1.42,-0.264c0.81,-0.035 1.05,-0.044 3.1,-0.044c2.04,0 2.28,0.009 3.08,0.044z" fill="#141313"/>
<path id="Vector_10" d="M15.95,20.122c0,2.171 1.76,3.933 3.93,3.933c2.17,0 3.93,-1.762 3.93,-3.933c0,-2.172 -1.76,-3.934 -3.93,-3.934c-2.17,0 -3.93,1.762 -3.93,3.934zM22.43,20.122c0,1.408 -1.14,2.551 -2.55,2.551c-1.41,0 -2.55,-1.143 -2.55,-2.551c0,-1.409 1.14,-2.552 2.55,-2.552c1.41,0 2.55,1.143 2.55,2.552z" fill="#141313"/>
<path id="Vector_11" d="M15.79,15.114c0.51,0 0.92,0.411 0.92,0.919c0,0.507 -0.41,0.918 -0.92,0.918c-0.51,0 -0.92,-0.411 -0.92,-0.918c0,-0.508 0.41,-0.919 0.92,-0.919z" fill="#141313"/>
</g>
</g></svg>