<svg viewBox="0 0 32 32" fill="none" xmlns="http://www.w3.org/2000/svg" xmlns:xlink="http://www.w3.org/1999/xlink" x="0" y="0"><g id="Icon_3">
<circle id="Ellipse 12" cx="16" cy="15.999900000000025" r="16" fill="currentColor" fill-opacity="0.05"/>
<g id="Communications/Communication 1 - 24px">
<path id="Icon_4" fill-rule="evenodd" clip-rule="evenodd" d="M10.495,9.6349c-1.426,0 -2.581,1.155 -2.581,2.58v8.602c0,1.426 1.155,2.581 2.581,2.581h12.043c1.425,0 2.58,-1.155 2.58,-2.581v-8.602c0,-1.425 -1.155,-2.58 -2.58,-2.58zM9.713,11.8559c0.136,-0.296 0.435,-0.501 0.782,-0.501h12.043c0.346,0 0.645,0.205 0.781,0.501l-6.275,4.88c-0.31,0.242 -0.745,0.242 -1.056,0zM9.634,13.9739v5.007l3.108,-2.59zM9.706,21.1609c0.132,0.304 0.436,0.517 0.789,0.517h12.043c0.353,0 0.656,-0.213 0.789,-0.517l-4.427,-3.689l-0.799,0.622c-0.932,0.725 -2.237,0.725 -3.169,0l-0.8,-0.622zM23.398,18.9809v-5.007l-3.108,2.417z" fill="currentColor"/>
</g>
</g></svg>