<svg viewBox="0 0 545 430" fill="none" xmlns="http://www.w3.org/2000/svg" xmlns:xlink="http://www.w3.org/1999/xlink" x="0" y="0"><defs><linearGradient id="paint5_linear_6_493" x1="22.638" y1="16.8886" x2="1.86848" y2="16.8323" gradientUnits="userSpaceOnUse">
<stop stop-color="#FFB147"/>
<stop offset="0.520264" stop-color="#FF6C63"/>
<stop offset="1" stop-color="#B86ADF"/>
</linearGradient></defs><g id="Text">
<g id="Txt">
<g id="My name is Jacob Jones...">
<path d="M64.974,23.0239h-0.51l-6.018,11.934l-17.034,31.008l-17.034,-31.008l-6.018,-11.934h-0.51v59.976h-8.364v-71.196h11.424l20.4,38.352h0.51l20.502,-38.352h11.016v71.196h-8.364zM108.581,82.9999v-28.152l-24.48,-43.044h9.792l18.972,34.272h0.306l18.972,-34.272h9.792l-24.786,42.738v28.458zM194.068,39.5479l-8.568,-15.81h-0.306v59.262h-8.364v-71.196h9.894l26.01,43.452l8.568,15.81h0.306v-59.262h8.364v71.196h-9.894zM293.521,82.9999l-7.14,-21.012h-28.764l-7.14,21.012h-8.67l24.888,-71.196h10.914l24.888,71.196zM272.203,19.7599h-0.51l-12.036,34.68h24.582zM369.779,23.0239h-0.51l-6.018,11.934l-17.034,31.008l-17.034,-31.008l-6.018,-11.934h-0.51v59.976h-8.364v-71.196h11.424l20.4,38.352h0.51l20.502,-38.352h11.016v71.196h-8.364zM397.066,82.9999v-71.196h43.452v7.548h-34.884v23.868h32.844v7.548h-32.844v24.684h34.884v7.548zM6.12,172.9999v-7.14h9.996v-56.916h-9.996v-7.14h28.56v7.14h-9.996v56.916h9.996v7.14zM70.318,174.2239c-5.78,0 -10.71,-1.088 -14.79,-3.264c-4.08,-2.244 -7.548,-5.304 -10.404,-9.18l6.324,-5.304c2.516,3.332 5.304,5.882 8.364,7.65c3.06,1.7 6.664,2.55 10.812,2.55c5.1,0 8.976,-1.224 11.628,-3.672c2.72,-2.448 4.08,-5.712 4.08,-9.792c0,-3.4 -1.02,-6.018 -3.06,-7.854c-2.04,-1.836 -5.406,-3.298 -10.098,-4.386l-5.814,-1.326c-6.528,-1.496 -11.526,-3.74 -14.994,-6.732c-3.4,-3.06 -5.1,-7.344 -5.1,-12.852c0,-3.128 0.578,-5.916 1.734,-8.364c1.156,-2.448 2.754,-4.488 4.794,-6.12c2.108,-1.632 4.59,-2.856 7.446,-3.672c2.924,-0.884 6.12,-1.326 9.588,-1.326c5.372,0 9.962,0.986 13.77,2.958c3.876,1.972 7.14,4.862 9.792,8.67l-6.426,4.692c-1.972,-2.72 -4.352,-4.862 -7.14,-6.426c-2.788,-1.564 -6.256,-2.346 -10.404,-2.346c-4.556,0 -8.16,0.986 -10.812,2.958c-2.584,1.904 -3.876,4.794 -3.876,8.67c0,3.4 1.088,5.984 3.264,7.752c2.244,1.7 5.61,3.06 10.098,4.08l5.814,1.326c7.004,1.564 12.07,3.944 15.198,7.14c3.128,3.196 4.692,7.446 4.692,12.75c0,3.264 -0.578,6.222 -1.734,8.874c-1.088,2.652 -2.686,4.896 -4.794,6.732c-2.108,1.836 -4.692,3.264 -7.752,4.284c-2.992,1.02 -6.392,1.53 -10.2,1.53zM173.785,101.8039v50.592c0,3.264 -0.544,6.256 -1.632,8.976c-1.02,2.652 -2.55,4.93 -4.59,6.834c-2.04,1.836 -4.522,3.298 -7.446,4.386c-2.856,1.02 -6.12,1.53 -9.792,1.53c-3.536,0 -6.664,-0.476 -9.384,-1.428c-2.652,-0.952 -4.964,-2.312 -6.936,-4.08c-1.904,-1.768 -3.468,-3.876 -4.692,-6.324c-1.224,-2.448 -2.074,-5.168 -2.55,-8.16l14.484,-2.856c1.156,6.188 4.114,9.282 8.874,9.282c2.244,0 4.148,-0.714 5.712,-2.142c1.632,-1.428 2.448,-3.672 2.448,-6.732v-37.434h-21.624v-12.444zM230.712,172.9999l-5.1,-16.932h-23.766l-5.1,16.932h-15.708l23.46,-71.196h19.176l23.154,71.196zM213.882,115.8799h-0.51l-7.854,27.03h16.32zM282.354,174.2239c-4.828,0 -9.18,-0.748 -13.056,-2.244c-3.876,-1.564 -7.174,-3.842 -9.894,-6.834c-2.72,-3.06 -4.828,-6.834 -6.324,-11.322c-1.496,-4.556 -2.244,-9.86 -2.244,-15.912c0,-5.984 0.748,-11.288 2.244,-15.912c1.496,-4.692 3.604,-8.602 6.324,-11.73c2.72,-3.196 6.018,-5.61 9.894,-7.242c3.876,-1.632 8.228,-2.448 13.056,-2.448c6.596,0 12.036,1.36 16.32,4.08c4.284,2.652 7.718,6.868 10.302,12.648l-13.362,6.936c-0.952,-2.992 -2.448,-5.372 -4.488,-7.14c-1.972,-1.836 -4.896,-2.754 -8.772,-2.754c-4.556,0 -8.228,1.496 -11.016,4.488c-2.72,2.924 -4.08,7.208 -4.08,12.852v11.424c0,5.644 1.36,9.962 4.08,12.954c2.788,2.924 6.46,4.386 11.016,4.386c3.808,0 6.834,-1.02 9.078,-3.06c2.312,-2.108 4.012,-4.624 5.1,-7.548l12.648,7.344c-2.652,5.44 -6.154,9.656 -10.506,12.648c-4.284,2.924 -9.724,4.386 -16.32,4.386zM347.295,174.2239c-4.692,0 -8.976,-0.782 -12.852,-2.346c-3.876,-1.564 -7.174,-3.876 -9.894,-6.936c-2.72,-3.128 -4.828,-6.97 -6.324,-11.526c-1.496,-4.624 -2.244,-9.962 -2.244,-16.014c0,-6.052 0.748,-11.356 2.244,-15.912c1.496,-4.624 3.604,-8.466 6.324,-11.526c2.72,-3.128 6.018,-5.474 9.894,-7.038c3.876,-1.564 8.16,-2.346 12.852,-2.346c4.692,0 8.976,0.782 12.852,2.346c3.876,1.564 7.174,3.91 9.894,7.038c2.72,3.06 4.828,6.902 6.324,11.526c1.496,4.556 2.244,9.86 2.244,15.912c0,6.052 -0.748,11.39 -2.244,16.014c-1.496,4.556 -3.604,8.398 -6.324,11.526c-2.72,3.06 -6.018,5.372 -9.894,6.936c-3.876,1.564 -8.16,2.346 -12.852,2.346zM347.295,160.4539c4.692,0 8.33,-1.53 10.914,-4.59c2.652,-3.06 3.978,-7.446 3.978,-13.158v-10.608c0,-5.712 -1.326,-10.098 -3.978,-13.158c-2.584,-3.06 -6.222,-4.59 -10.914,-4.59c-4.692,0 -8.364,1.53 -11.016,4.59c-2.584,3.06 -3.876,7.446 -3.876,13.158v10.608c0,5.712 1.292,10.098 3.876,13.158c2.652,3.06 6.324,4.59 11.016,4.59zM391.549,101.8039h34.578c5.916,0 10.506,1.666 13.77,4.998c3.332,3.332 4.998,7.752 4.998,13.26c0,2.72 -0.374,5.032 -1.122,6.936c-0.68,1.904 -1.632,3.468 -2.856,4.692c-1.156,1.224 -2.55,2.142 -4.182,2.754c-1.564,0.544 -3.264,0.85 -5.1,0.918v0.612c1.7,0 3.468,0.306 5.304,0.918c1.904,0.612 3.638,1.598 5.202,2.958c1.564,1.292 2.856,2.992 3.876,5.1c1.088,2.108 1.632,4.692 1.632,7.752c0,2.788 -0.476,5.44 -1.428,7.956c-0.884,2.448 -2.142,4.59 -3.774,6.426c-1.632,1.836 -3.57,3.298 -5.814,4.386c-2.244,1.02 -4.692,1.53 -7.344,1.53h-37.74zM407.053,159.9439h17.85c2.04,0 3.638,-0.544 4.794,-1.632c1.224,-1.156 1.836,-2.754 1.836,-4.794v-3.468c0,-2.04 -0.612,-3.604 -1.836,-4.692c-1.156,-1.156 -2.754,-1.734 -4.794,-1.734h-17.85zM407.053,130.9759h15.402c2.04,0 3.638,-0.578 4.794,-1.734c1.156,-1.156 1.734,-2.754 1.734,-4.794v-3.06c0,-2.04 -0.578,-3.638 -1.734,-4.794c-1.156,-1.156 -2.754,-1.734 -4.794,-1.734h-15.402zM49.572,191.8039v50.592c0,3.264 -0.544,6.256 -1.632,8.976c-1.02,2.652 -2.55,4.93 -4.59,6.834c-2.04,1.836 -4.522,3.298 -7.446,4.386c-2.856,1.02 -6.12,1.53 -9.792,1.53c-3.536,0 -6.664,-0.476 -9.384,-1.428c-2.652,-0.952 -4.964,-2.312 -6.936,-4.08c-1.904,-1.768 -3.468,-3.876 -4.692,-6.324c-1.224,-2.448 -2.074,-5.168 -2.55,-8.16l14.484,-2.856c1.156,6.188 4.114,9.282 8.874,9.282c2.244,0 4.148,-0.714 5.712,-2.142c1.632,-1.428 2.448,-3.672 2.448,-6.732v-37.434h-21.624v-12.444zM93.391,264.2239c-4.692,0 -8.976,-0.782 -12.852,-2.346c-3.876,-1.564 -7.174,-3.876 -9.894,-6.936c-2.72,-3.128 -4.828,-6.97 -6.324,-11.526c-1.496,-4.624 -2.244,-9.962 -2.244,-16.014c0,-6.052 0.748,-11.356 2.244,-15.912c1.496,-4.624 3.604,-8.466 6.324,-11.526c2.72,-3.128 6.018,-5.474 9.894,-7.038c3.876,-1.564 8.16,-2.346 12.852,-2.346c4.692,0 8.976,0.782 12.852,2.346c3.876,1.564 7.174,3.91 9.894,7.038c2.72,3.06 4.828,6.902 6.324,11.526c1.496,4.556 2.244,9.86 2.244,15.912c0,6.052 -0.748,11.39 -2.244,16.014c-1.496,4.556 -3.604,8.398 -6.324,11.526c-2.72,3.06 -6.018,5.372 -9.894,6.936c-3.876,1.564 -8.16,2.346 -12.852,2.346zM93.391,250.4539c4.692,0 8.33,-1.53 10.914,-4.59c2.652,-3.06 3.978,-7.446 3.978,-13.158v-10.608c0,-5.712 -1.326,-10.098 -3.978,-13.158c-2.584,-3.06 -6.222,-4.59 -10.914,-4.59c-4.692,0 -8.364,1.53 -11.016,4.59c-2.584,3.06 -3.876,7.446 -3.876,13.158v10.608c0,5.712 1.292,10.098 3.876,13.158c2.652,3.06 6.324,4.59 11.016,4.59zM159.371,229.3399l-6.834,-14.28h-0.306v47.94h-14.586v-71.196h16.932l19.482,33.66l6.834,14.28h0.306v-47.94h14.586v71.196h-16.932zM211.456,262.9999v-71.196h48.45v13.77h-32.946v14.586h28.254v13.668h-28.254v15.402h32.946v13.77zM296.465,264.2239c-6.256,0 -11.56,-1.054 -15.912,-3.162c-4.352,-2.176 -8.058,-4.964 -11.118,-8.364l10.2,-10.302c4.828,5.44 10.778,8.16 17.85,8.16c3.808,0 6.63,-0.782 8.466,-2.346c1.836,-1.564 2.754,-3.638 2.754,-6.222c0,-1.972 -0.544,-3.604 -1.632,-4.896c-1.088,-1.36 -3.298,-2.278 -6.63,-2.754l-7.038,-0.918c-7.548,-0.952 -13.09,-3.23 -16.626,-6.834c-3.468,-3.604 -5.202,-8.398 -5.202,-14.382c0,-3.196 0.612,-6.12 1.836,-8.772c1.224,-2.652 2.958,-4.93 5.202,-6.834c2.312,-1.904 5.1,-3.366 8.364,-4.386c3.332,-1.088 7.106,-1.632 11.322,-1.632c5.372,0 10.098,0.85 14.178,2.55c4.08,1.7 7.582,4.182 10.506,7.446l-10.302,10.404c-1.7,-1.972 -3.774,-3.57 -6.222,-4.794c-2.38,-1.292 -5.406,-1.938 -9.078,-1.938c-3.468,0 -6.052,0.612 -7.752,1.836c-1.7,1.224 -2.55,2.924 -2.55,5.1c0,2.448 0.646,4.216 1.938,5.304c1.36,1.088 3.536,1.87 6.528,2.346l7.038,1.122c7.344,1.156 12.784,3.434 16.32,6.834c3.536,3.332 5.304,8.092 5.304,14.28c0,3.4 -0.612,6.528 -1.836,9.384c-1.224,2.856 -3.026,5.304 -5.406,7.344c-2.312,2.04 -5.202,3.638 -8.67,4.794c-3.468,1.088 -7.412,1.632 -11.832,1.632zM345.019,264.1219c-3.06,0 -5.338,-0.748 -6.834,-2.244c-1.428,-1.564 -2.142,-3.536 -2.142,-5.916v-2.04c0,-2.38 0.714,-4.318 2.142,-5.814c1.496,-1.564 3.774,-2.346 6.834,-2.346c3.06,0 5.304,0.782 6.732,2.346c1.496,1.496 2.244,3.434 2.244,5.814v2.04c0,2.38 -0.748,4.352 -2.244,5.916c-1.428,1.496 -3.672,2.244 -6.732,2.244zM376.595,264.1219c-3.06,0 -5.338,-0.748 -6.834,-2.244c-1.428,-1.564 -2.142,-3.536 -2.142,-5.916v-2.04c0,-2.38 0.714,-4.318 2.142,-5.814c1.496,-1.564 3.774,-2.346 6.834,-2.346c3.06,0 5.304,0.782 6.732,2.346c1.496,1.496 2.244,3.434 2.244,5.814v2.04c0,2.38 -0.748,4.352 -2.244,5.916c-1.428,1.496 -3.672,2.244 -6.732,2.244zM408.171,264.1219c-3.06,0 -5.338,-0.748 -6.834,-2.244c-1.428,-1.564 -2.142,-3.536 -2.142,-5.916v-2.04c0,-2.38 0.714,-4.318 2.142,-5.814c1.496,-1.564 3.774,-2.346 6.834,-2.346c3.06,0 5.304,0.782 6.732,2.346c1.496,1.496 2.244,3.434 2.244,5.814v2.04c0,2.38 -0.748,4.352 -2.244,5.916c-1.428,1.496 -3.672,2.244 -6.732,2.244z" fill="#141313"/>
</g>
<path id="Product Designer based in London" d="M0.704,321.9999l4.48,-22.336h8.416c2.24,0 3.968,0.523 5.184,1.568c1.237,1.045 1.856,2.517 1.856,4.416c0,1.216 -0.213,2.336 -0.64,3.36c-0.427,1.003 -1.024,1.867 -1.792,2.592c-0.768,0.704 -1.685,1.259 -2.752,1.664c-1.067,0.384 -2.229,0.576 -3.488,0.576h-4.992l-1.632,8.16zM7.808,309.7439h4.768c0.725,0 1.344,-0.192 1.856,-0.576c0.533,-0.384 0.885,-0.971 1.056,-1.76c0.107,-0.491 0.192,-0.885 0.256,-1.184c0.064,-0.32 0.096,-0.565 0.096,-0.736c0,-0.491 -0.171,-0.896 -0.512,-1.216c-0.32,-0.341 -0.832,-0.512 -1.536,-0.512h-4.8zM19.551,321.9999l3.36,-16.8h4.48l-0.832,4.192h0.224c0.17,-0.448 0.405,-0.917 0.704,-1.408c0.32,-0.512 0.682,-0.971 1.088,-1.376c0.426,-0.405 0.906,-0.736 1.44,-0.992c0.554,-0.277 1.152,-0.416 1.792,-0.416h0.8l-0.896,4.352h-1.12c-1.43,0 -2.518,0.267 -3.264,0.8c-0.747,0.512 -1.259,1.451 -1.536,2.816l-1.76,8.832zM38.26,322.3839c-2.069,0 -3.701,-0.608 -4.896,-1.824c-1.195,-1.237 -1.792,-2.965 -1.792,-5.184c0,-1.515 0.213,-2.912 0.64,-4.192c0.448,-1.301 1.056,-2.421 1.824,-3.36c0.768,-0.939 1.675,-1.675 2.72,-2.208c1.067,-0.533 2.229,-0.8 3.488,-0.8c2.069,0 3.701,0.619 4.896,1.856c1.195,1.216 1.792,2.933 1.792,5.152c0,1.515 -0.224,2.923 -0.672,4.224c-0.427,1.28 -1.024,2.389 -1.792,3.328c-0.768,0.939 -1.685,1.675 -2.752,2.208c-1.067,0.533 -2.219,0.8 -3.456,0.8zM38.42,318.7679c1.749,0 2.869,-1.227 3.36,-3.68l0.608,-3.008c0.021,-0.107 0.043,-0.245 0.064,-0.416c0.021,-0.171 0.032,-0.363 0.032,-0.576c0,-0.811 -0.203,-1.451 -0.608,-1.92c-0.405,-0.491 -1.003,-0.736 -1.792,-0.736c-1.749,0 -2.869,1.227 -3.36,3.68l-0.608,3.008c-0.021,0.107 -0.043,0.245 -0.064,0.416c-0.021,0.171 -0.032,0.363 -0.032,0.576c0,0.811 0.203,1.461 0.608,1.952c0.405,0.469 1.003,0.704 1.792,0.704zM60.724,321.9999c-0.811,0 -1.483,-0.213 -2.016,-0.64c-0.534,-0.427 -0.8,-1.035 -0.8,-1.824c0,-0.171 0.01,-0.352 0.032,-0.544c0.021,-0.192 0.042,-0.331 0.064,-0.416l0.096,-0.48h-0.192c-0.662,1.365 -1.408,2.421 -2.24,3.168c-0.832,0.747 -1.91,1.12 -3.232,1.12c-0.79,0 -1.472,-0.139 -2.048,-0.416c-0.555,-0.299 -1.014,-0.704 -1.376,-1.216c-0.363,-0.533 -0.63,-1.152 -0.8,-1.856c-0.171,-0.725 -0.256,-1.504 -0.256,-2.336c0,-1.792 0.202,-3.403 0.608,-4.832c0.426,-1.451 0.992,-2.688 1.696,-3.712c0.704,-1.024 1.525,-1.813 2.464,-2.368c0.96,-0.555 1.973,-0.832 3.04,-0.832c1.173,0 2.133,0.32 2.88,0.96c0.768,0.64 1.205,1.419 1.312,2.336h0.16l1.952,-9.792h4.48l-4.032,20.096h1.888l-0.704,3.584zM54.644,318.7039c0.576,0 1.098,-0.149 1.568,-0.448c0.469,-0.299 0.874,-0.661 1.216,-1.088c0.362,-0.427 0.672,-0.928 0.928,-1.504c0.277,-0.597 0.48,-1.205 0.608,-1.824l0.512,-2.56c0.17,-0.853 0.01,-1.525 -0.48,-2.016c-0.491,-0.512 -1.206,-0.768 -2.144,-0.768c-1.942,0 -3.168,1.248 -3.68,3.744l-0.448,2.24c-0.043,0.235 -0.086,0.533 -0.128,0.896c-0.043,0.363 -0.064,0.672 -0.064,0.928c0,0.747 0.181,1.333 0.544,1.76c0.384,0.427 0.906,0.64 1.568,0.64zM73.038,305.1999l-1.984,9.984c-0.064,0.299 -0.117,0.597 -0.16,0.896c-0.043,0.299 -0.064,0.565 -0.064,0.8c0,0.555 0.117,0.992 0.352,1.312c0.256,0.299 0.661,0.448 1.216,0.448c0.555,0 1.045,-0.139 1.472,-0.416c0.448,-0.299 0.853,-0.672 1.216,-1.12c0.768,-0.939 1.28,-2.027 1.536,-3.264l1.728,-8.64h4.48l-2.656,13.216h1.888l-0.704,3.584h-2.976c-0.811,0 -1.483,-0.213 -2.016,-0.64c-0.533,-0.427 -0.8,-1.035 -0.8,-1.824c0,-0.171 0.011,-0.352 0.032,-0.544c0.021,-0.192 0.043,-0.331 0.064,-0.416l0.096,-0.48h-0.192c-0.619,1.323 -1.355,2.368 -2.208,3.136c-0.853,0.768 -1.92,1.152 -3.2,1.152c-1.28,0 -2.261,-0.373 -2.944,-1.12c-0.683,-0.768 -1.024,-1.845 -1.024,-3.232c0,-0.427 0.021,-0.832 0.064,-1.216c0.064,-0.384 0.139,-0.789 0.224,-1.216l2.08,-10.4zM90.159,322.3839c-0.917,0 -1.781,-0.128 -2.592,-0.384c-0.789,-0.277 -1.483,-0.704 -2.08,-1.28c-0.597,-0.597 -1.067,-1.355 -1.408,-2.272c-0.341,-0.917 -0.512,-2.027 -0.512,-3.328c0,-1.493 0.224,-2.869 0.672,-4.128c0.448,-1.259 1.067,-2.347 1.856,-3.264c0.811,-0.917 1.76,-1.632 2.848,-2.144c1.088,-0.512 2.272,-0.768 3.552,-0.768c0.789,0 1.525,0.107 2.208,0.32c0.704,0.192 1.312,0.48 1.824,0.864c0.533,0.384 0.971,0.843 1.312,1.376c0.341,0.533 0.565,1.131 0.672,1.792l-3.776,1.44c-0.192,-0.661 -0.459,-1.184 -0.8,-1.568c-0.32,-0.405 -0.885,-0.608 -1.696,-0.608c-1.856,0 -3.019,1.173 -3.488,3.52l-0.576,2.848c-0.107,0.491 -0.16,0.939 -0.16,1.344c0,0.789 0.192,1.429 0.576,1.92c0.405,0.469 1.056,0.704 1.952,0.704c0.427,0 0.8,-0.064 1.12,-0.192c0.32,-0.128 0.597,-0.309 0.832,-0.544c0.256,-0.235 0.491,-0.512 0.704,-0.832c0.213,-0.32 0.437,-0.683 0.672,-1.088l3.424,1.6c-0.747,1.557 -1.728,2.731 -2.944,3.52c-1.195,0.768 -2.592,1.152 -4.192,1.152zM103.251,321.9999c-2.624,0 -3.936,-1.056 -3.936,-3.168c0,-0.171 0.011,-0.384 0.032,-0.64c0.022,-0.256 0.054,-0.501 0.096,-0.736l1.728,-8.672h-2.368l0.704,-3.584h1.12c0.683,0 1.142,-0.139 1.376,-0.416c0.235,-0.277 0.406,-0.704 0.512,-1.28l0.576,-2.848h4.16l-0.896,4.544h3.392l-0.736,3.584h-3.392l-1.92,9.632h3.072l-0.704,3.584zM119.566,299.6639h7.168c2.667,0 4.758,0.704 6.273,2.112c1.536,1.408 2.304,3.488 2.304,6.24c0,1.984 -0.256,3.829 -0.768,5.536c-0.512,1.707 -1.27,3.189 -2.272,4.448c-0.982,1.237 -2.208,2.219 -3.68,2.944c-1.451,0.704 -3.115,1.056 -4.992,1.056h-8.513zM123.983,317.9039c1.45,0 2.688,-0.437 3.711,-1.312c1.025,-0.875 1.718,-2.229 2.081,-4.064l0.607,-3.008c0.086,-0.405 0.139,-0.789 0.16,-1.152c0.043,-0.363 0.065,-0.64 0.065,-0.832c0,-1.344 -0.331,-2.304 -0.992,-2.88c-0.64,-0.597 -1.504,-0.896 -2.592,-0.896h-3.617l-2.848,14.144zM143.331,322.3839c-2.389,0 -4.171,-0.64 -5.344,-1.92c-1.173,-1.301 -1.76,-3.072 -1.76,-5.312c0,-1.344 0.213,-2.635 0.64,-3.872c0.427,-1.259 1.035,-2.357 1.824,-3.296c0.789,-0.96 1.749,-1.728 2.88,-2.304c1.131,-0.576 2.389,-0.864 3.776,-0.864c0.64,0 1.312,0.075 2.016,0.224c0.704,0.149 1.344,0.405 1.92,0.768c0.597,0.341 1.088,0.811 1.472,1.408c0.405,0.597 0.608,1.355 0.608,2.272c0,0.875 -0.203,1.664 -0.608,2.368c-0.405,0.683 -1.035,1.28 -1.888,1.792c-0.853,0.491 -1.952,0.885 -3.296,1.184c-1.344,0.277 -2.955,0.448 -4.832,0.512c-0.043,0.192 -0.064,0.341 -0.064,0.448c0,0.107 0,0.203 0,0.288c0,0.811 0.213,1.461 0.64,1.952c0.448,0.491 1.227,0.736 2.336,0.736c0.725,0 1.397,-0.149 2.016,-0.448c0.64,-0.32 1.333,-0.949 2.08,-1.888l2.752,2.176c-1.045,1.387 -2.144,2.368 -3.296,2.944c-1.131,0.555 -2.421,0.832 -3.872,0.832zM145.091,308.2399c-0.96,0 -1.781,0.32 -2.464,0.96c-0.661,0.619 -1.088,1.472 -1.28,2.56l-0.128,0.736c1.195,-0.064 2.165,-0.171 2.912,-0.32c0.768,-0.149 1.365,-0.331 1.792,-0.544c0.427,-0.235 0.715,-0.491 0.864,-0.768c0.149,-0.277 0.224,-0.587 0.224,-0.928c0,-0.363 -0.064,-0.651 -0.192,-0.864c-0.128,-0.235 -0.288,-0.405 -0.48,-0.512c-0.192,-0.128 -0.405,-0.213 -0.64,-0.256c-0.213,-0.043 -0.416,-0.064 -0.608,-0.064zM157.56,322.3839c-1.408,0 -2.699,-0.245 -3.872,-0.736c-1.174,-0.491 -2.134,-1.227 -2.88,-2.208l2.816,-2.624c0.469,0.619 1.013,1.109 1.632,1.472c0.64,0.341 1.44,0.512 2.4,0.512c1.045,0 1.781,-0.181 2.208,-0.544c0.448,-0.384 0.672,-0.821 0.672,-1.312c0,-0.32 -0.118,-0.608 -0.352,-0.864c-0.214,-0.256 -0.619,-0.427 -1.216,-0.512l-1.696,-0.224c-1.451,-0.192 -2.56,-0.651 -3.328,-1.376c-0.768,-0.747 -1.152,-1.792 -1.152,-3.136c0,-0.789 0.138,-1.547 0.416,-2.272c0.277,-0.725 0.704,-1.365 1.28,-1.92c0.576,-0.555 1.301,-0.992 2.176,-1.312c0.874,-0.341 1.909,-0.512 3.104,-0.512c1.301,0 2.474,0.224 3.52,0.672c1.066,0.427 1.973,1.088 2.72,1.984l-2.816,2.624c-0.406,-0.512 -0.928,-0.917 -1.568,-1.216c-0.619,-0.32 -1.302,-0.48 -2.048,-0.48c-0.747,0 -1.344,0.171 -1.792,0.512c-0.427,0.32 -0.64,0.736 -0.64,1.248c0,0.32 0.106,0.608 0.32,0.864c0.234,0.256 0.65,0.427 1.248,0.512l1.696,0.224c1.45,0.192 2.56,0.661 3.328,1.408c0.768,0.725 1.152,1.749 1.152,3.072c0,0.811 -0.16,1.589 -0.48,2.336c-0.299,0.747 -0.758,1.408 -1.376,1.984c-0.619,0.555 -1.387,1.003 -2.304,1.344c-0.918,0.32 -1.974,0.48 -3.168,0.48zM172.154,303.3439c-0.789,0 -1.376,-0.149 -1.76,-0.448c-0.363,-0.299 -0.544,-0.704 -0.544,-1.216c0,-0.192 0.021,-0.405 0.064,-0.64c0.043,-0.235 0.085,-0.448 0.128,-0.64c0.064,-0.277 0.16,-0.555 0.288,-0.832c0.128,-0.277 0.309,-0.523 0.544,-0.736c0.235,-0.213 0.533,-0.384 0.896,-0.512c0.363,-0.149 0.811,-0.224 1.344,-0.224c0.789,0 1.365,0.149 1.728,0.448c0.384,0.299 0.576,0.704 0.576,1.216c0,0.192 -0.021,0.405 -0.064,0.64c-0.043,0.235 -0.085,0.448 -0.128,0.64c-0.064,0.277 -0.16,0.555 -0.288,0.832c-0.128,0.277 -0.309,0.523 -0.544,0.736c-0.235,0.213 -0.533,0.395 -0.896,0.544c-0.363,0.128 -0.811,0.192 -1.344,0.192zM169.594,321.9999c-0.875,0 -1.579,-0.235 -2.112,-0.704c-0.512,-0.469 -0.768,-1.088 -0.768,-1.856c0,-0.213 0.032,-0.48 0.096,-0.8l2.688,-13.44h4.48l-2.656,13.216h1.888l-0.704,3.584zM189.634,322.7039c0,0.725 -0.149,1.451 -0.448,2.176c-0.277,0.725 -0.789,1.376 -1.536,1.952c-0.725,0.576 -1.717,1.045 -2.976,1.408c-1.237,0.363 -2.827,0.544 -4.768,0.544c-1.408,0 -2.571,-0.096 -3.488,-0.288c-0.917,-0.192 -1.653,-0.459 -2.208,-0.8c-0.533,-0.341 -0.907,-0.736 -1.12,-1.184c-0.213,-0.448 -0.32,-0.928 -0.32,-1.44c0,-0.512 0.096,-0.96 0.288,-1.344c0.192,-0.384 0.448,-0.715 0.768,-0.992c0.341,-0.277 0.736,-0.512 1.184,-0.704c0.448,-0.171 0.928,-0.32 1.44,-0.448v-0.224c-0.619,-0.128 -1.088,-0.405 -1.408,-0.832c-0.32,-0.448 -0.48,-0.981 -0.48,-1.6c0,-0.469 0.096,-0.885 0.288,-1.248c0.213,-0.384 0.491,-0.715 0.832,-0.992c0.341,-0.299 0.736,-0.533 1.184,-0.704c0.448,-0.192 0.907,-0.341 1.376,-0.448l0.032,-0.224c-0.789,-0.405 -1.397,-0.96 -1.824,-1.664c-0.405,-0.704 -0.608,-1.547 -0.608,-2.528c0,-0.768 0.149,-1.525 0.448,-2.272c0.299,-0.768 0.768,-1.451 1.408,-2.048c0.64,-0.597 1.451,-1.077 2.432,-1.44c0.981,-0.363 2.165,-0.544 3.552,-0.544c0.555,0 1.067,0.043 1.536,0.128c0.469,0.064 0.917,0.16 1.344,0.288l0.16,-0.736c0.171,-0.875 0.491,-1.504 0.96,-1.888c0.469,-0.405 1.088,-0.608 1.856,-0.608h2.528l-0.704,3.456h-3.424l-0.096,0.416c0.661,0.427 1.163,0.971 1.504,1.632c0.363,0.64 0.544,1.408 0.544,2.304c0,0.768 -0.149,1.536 -0.448,2.304c-0.299,0.747 -0.768,1.419 -1.408,2.016c-0.64,0.597 -1.461,1.077 -2.464,1.44c-0.981,0.363 -2.155,0.544 -3.52,0.544c-1.003,0 -1.867,-0.107 -2.592,-0.32c-0.363,0.149 -0.661,0.363 -0.896,0.64c-0.213,0.277 -0.32,0.587 -0.32,0.928c0,0.704 0.565,1.056 1.696,1.056h4.128c3.712,0 5.568,1.429 5.568,4.288zM185.154,323.6639c0,-0.448 -0.16,-0.789 -0.48,-1.024c-0.32,-0.235 -0.917,-0.352 -1.792,-0.352h-5.536c-0.32,0.235 -0.544,0.512 -0.672,0.832c-0.128,0.341 -0.192,0.651 -0.192,0.928c0,0.512 0.213,0.917 0.64,1.216c0.427,0.299 1.173,0.448 2.24,0.448h2.08c1.408,0 2.379,-0.203 2.912,-0.608c0.533,-0.405 0.8,-0.885 0.8,-1.44zM182.434,313.0399c0.896,0 1.589,-0.192 2.08,-0.576c0.491,-0.405 0.811,-0.981 0.96,-1.728c0.064,-0.32 0.096,-0.555 0.096,-0.704c0.021,-0.149 0.032,-0.267 0.032,-0.352c0,-1.195 -0.779,-1.792 -2.336,-1.792c-0.896,0 -1.589,0.203 -2.08,0.608c-0.491,0.384 -0.811,0.949 -0.96,1.696c-0.064,0.32 -0.107,0.555 -0.128,0.704c0,0.149 0,0.267 0,0.352c0,1.195 0.779,1.792 2.336,1.792zM190.343,321.9999l3.36,-16.8h4.48l-0.768,3.904h0.192c0.64,-1.344 1.397,-2.389 2.272,-3.136c0.875,-0.768 1.973,-1.152 3.296,-1.152c1.301,0 2.293,0.384 2.976,1.152c0.704,0.747 1.056,1.813 1.056,3.2c0,0.405 -0.032,0.8 -0.096,1.184c-0.043,0.363 -0.107,0.757 -0.192,1.184l-1.376,6.88h1.696l-0.704,3.584h-2.912c-0.853,0 -1.515,-0.213 -1.984,-0.64c-0.469,-0.448 -0.704,-1.045 -0.704,-1.792c0,-0.192 0.011,-0.363 0.032,-0.512c0.021,-0.171 0.043,-0.299 0.064,-0.384l1.312,-6.656c0.064,-0.299 0.117,-0.587 0.16,-0.864c0.043,-0.299 0.064,-0.608 0.064,-0.928c0,-0.491 -0.128,-0.885 -0.384,-1.184c-0.256,-0.32 -0.693,-0.48 -1.312,-0.48c-0.555,0 -1.056,0.149 -1.504,0.448c-0.448,0.299 -0.853,0.661 -1.216,1.088c-0.384,0.448 -0.715,0.949 -0.992,1.504c-0.277,0.533 -0.48,1.12 -0.608,1.76l-1.728,8.64zM215.843,322.3839c-2.389,0 -4.17,-0.64 -5.344,-1.92c-1.173,-1.301 -1.76,-3.072 -1.76,-5.312c0,-1.344 0.214,-2.635 0.64,-3.872c0.427,-1.259 1.035,-2.357 1.824,-3.296c0.79,-0.96 1.75,-1.728 2.88,-2.304c1.131,-0.576 2.39,-0.864 3.776,-0.864c0.64,0 1.312,0.075 2.016,0.224c0.704,0.149 1.344,0.405 1.92,0.768c0.598,0.341 1.088,0.811 1.472,1.408c0.406,0.597 0.608,1.355 0.608,2.272c0,0.875 -0.202,1.664 -0.608,2.368c-0.405,0.683 -1.034,1.28 -1.888,1.792c-0.853,0.491 -1.952,0.885 -3.296,1.184c-1.344,0.277 -2.954,0.448 -4.832,0.512c-0.042,0.192 -0.064,0.341 -0.064,0.448c0,0.107 0,0.203 0,0.288c0,0.811 0.214,1.461 0.64,1.952c0.448,0.491 1.227,0.736 2.336,0.736c0.726,0 1.398,-0.149 2.016,-0.448c0.64,-0.32 1.334,-0.949 2.08,-1.888l2.752,2.176c-1.045,1.387 -2.144,2.368 -3.296,2.944c-1.13,0.555 -2.421,0.832 -3.872,0.832zM217.603,308.2399c-0.96,0 -1.781,0.32 -2.464,0.96c-0.661,0.619 -1.088,1.472 -1.28,2.56l-0.128,0.736c1.195,-0.064 2.166,-0.171 2.912,-0.32c0.768,-0.149 1.366,-0.331 1.792,-0.544c0.427,-0.235 0.715,-0.491 0.864,-0.768c0.15,-0.277 0.224,-0.587 0.224,-0.928c0,-0.363 -0.064,-0.651 -0.192,-0.864c-0.128,-0.235 -0.288,-0.405 -0.48,-0.512c-0.192,-0.128 -0.405,-0.213 -0.64,-0.256c-0.213,-0.043 -0.416,-0.064 -0.608,-0.064zM223.704,321.9999l3.36,-16.8h4.48l-0.832,4.192h0.224c0.171,-0.448 0.406,-0.917 0.704,-1.408c0.32,-0.512 0.683,-0.971 1.088,-1.376c0.427,-0.405 0.907,-0.736 1.44,-0.992c0.555,-0.277 1.152,-0.416 1.792,-0.416h0.8l-0.896,4.352h-1.12c-1.429,0 -2.517,0.267 -3.264,0.8c-0.746,0.512 -1.258,1.451 -1.536,2.816l-1.76,8.832zM244.213,298.3199h2.56v9.856h0.128c0.426,-1.045 1.045,-1.813 1.856,-2.304c0.832,-0.512 1.824,-0.768 2.976,-0.768c1.024,0 1.952,0.203 2.784,0.608c0.832,0.405 1.536,0.981 2.112,1.728c0.597,0.747 1.045,1.653 1.344,2.72c0.32,1.067 0.48,2.261 0.48,3.584c0,1.323 -0.16,2.517 -0.48,3.584c-0.299,1.067 -0.747,1.973 -1.344,2.72c-0.576,0.747 -1.28,1.323 -2.112,1.728c-0.832,0.405 -1.76,0.608 -2.784,0.608c-2.24,0 -3.851,-1.024 -4.832,-3.072h-0.128v2.688h-2.56zM251.029,320.0799c1.45,0 2.592,-0.448 3.424,-1.344c0.832,-0.917 1.248,-2.112 1.248,-3.584v-2.816c0,-1.472 -0.416,-2.656 -1.248,-3.552c-0.832,-0.917 -1.974,-1.376 -3.424,-1.376c-0.576,0 -1.131,0.085 -1.664,0.256c-0.512,0.149 -0.96,0.363 -1.344,0.64c-0.384,0.277 -0.694,0.619 -0.928,1.024c-0.214,0.384 -0.32,0.8 -0.32,1.248v6.144c0,0.533 0.106,1.013 0.32,1.44c0.234,0.405 0.544,0.757 0.928,1.056c0.384,0.277 0.832,0.491 1.344,0.64c0.533,0.149 1.088,0.224 1.664,0.224zM273.815,321.9999c-0.96,0 -1.653,-0.256 -2.08,-0.768c-0.405,-0.512 -0.661,-1.152 -0.768,-1.92h-0.16c-0.363,1.024 -0.96,1.792 -1.792,2.304c-0.832,0.512 -1.824,0.768 -2.976,0.768c-1.749,0 -3.115,-0.448 -4.096,-1.344c-0.96,-0.896 -1.44,-2.112 -1.44,-3.648c0,-1.557 0.565,-2.752 1.696,-3.584c1.152,-0.832 2.933,-1.248 5.344,-1.248h3.264v-1.632c0,-1.173 -0.32,-2.069 -0.96,-2.688c-0.64,-0.619 -1.621,-0.928 -2.944,-0.928c-1.003,0 -1.845,0.224 -2.528,0.672c-0.661,0.448 -1.216,1.045 -1.664,1.792l-1.536,-1.44c0.448,-0.896 1.163,-1.653 2.144,-2.272c0.981,-0.64 2.219,-0.96 3.712,-0.96c2.005,0 3.563,0.491 4.672,1.472c1.109,0.981 1.664,2.347 1.664,4.096v9.088h1.888v2.24zM266.455,320.2079c0.64,0 1.227,-0.075 1.76,-0.224c0.533,-0.149 0.992,-0.363 1.376,-0.64c0.384,-0.277 0.683,-0.597 0.896,-0.96c0.213,-0.363 0.32,-0.757 0.32,-1.184v-2.72h-3.392c-1.472,0 -2.549,0.213 -3.232,0.64c-0.661,0.427 -0.992,1.045 -0.992,1.856v0.672c0,0.811 0.288,1.44 0.864,1.888c0.597,0.448 1.397,0.672 2.4,0.672zM282.909,322.3839c-1.536,0 -2.827,-0.288 -3.872,-0.864c-1.024,-0.597 -1.91,-1.387 -2.656,-2.368l1.824,-1.472c0.64,0.811 1.354,1.44 2.144,1.888c0.789,0.427 1.706,0.64 2.752,0.64c1.088,0 1.93,-0.235 2.528,-0.704c0.618,-0.469 0.928,-1.131 0.928,-1.984c0,-0.64 -0.214,-1.184 -0.64,-1.632c-0.406,-0.469 -1.152,-0.789 -2.24,-0.96l-1.312,-0.192c-0.768,-0.107 -1.472,-0.267 -2.112,-0.48c-0.64,-0.235 -1.206,-0.533 -1.696,-0.896c-0.47,-0.384 -0.843,-0.853 -1.12,-1.408c-0.256,-0.555 -0.384,-1.216 -0.384,-1.984c0,-0.811 0.149,-1.515 0.448,-2.112c0.298,-0.619 0.704,-1.131 1.216,-1.536c0.533,-0.405 1.162,-0.704 1.888,-0.896c0.725,-0.213 1.504,-0.32 2.336,-0.32c1.344,0 2.464,0.235 3.36,0.704c0.917,0.469 1.717,1.12 2.4,1.952l-1.696,1.536c-0.363,-0.512 -0.896,-0.971 -1.6,-1.376c-0.704,-0.427 -1.59,-0.64 -2.656,-0.64c-1.067,0 -1.878,0.235 -2.432,0.704c-0.534,0.448 -0.8,1.067 -0.8,1.856c0,0.811 0.266,1.397 0.8,1.76c0.554,0.363 1.344,0.629 2.368,0.8l1.28,0.192c1.834,0.277 3.136,0.811 3.904,1.6c0.768,0.768 1.152,1.781 1.152,3.04c0,1.6 -0.544,2.859 -1.632,3.776c-1.088,0.917 -2.582,1.376 -4.48,1.376zM298.79,322.3839c-1.13,0 -2.154,-0.203 -3.072,-0.608c-0.896,-0.405 -1.674,-0.981 -2.336,-1.728c-0.64,-0.768 -1.141,-1.675 -1.504,-2.72c-0.341,-1.067 -0.512,-2.261 -0.512,-3.584c0,-1.301 0.171,-2.485 0.512,-3.552c0.363,-1.067 0.864,-1.973 1.504,-2.72c0.662,-0.768 1.44,-1.355 2.336,-1.76c0.918,-0.405 1.942,-0.608 3.072,-0.608c1.11,0 2.102,0.203 2.976,0.608c0.875,0.405 1.622,0.971 2.24,1.696c0.619,0.704 1.088,1.547 1.408,2.528c0.342,0.981 0.512,2.059 0.512,3.232v1.216h-11.872v0.768c0,0.704 0.107,1.365 0.32,1.984c0.235,0.597 0.555,1.12 0.96,1.568c0.427,0.448 0.939,0.8 1.536,1.056c0.619,0.256 1.312,0.384 2.08,0.384c1.046,0 1.952,-0.245 2.72,-0.736c0.79,-0.491 1.398,-1.195 1.824,-2.112l1.824,1.312c-0.533,1.131 -1.365,2.048 -2.496,2.752c-1.13,0.683 -2.474,1.024 -4.032,1.024zM298.79,307.2479c-0.704,0 -1.344,0.128 -1.92,0.384c-0.576,0.235 -1.077,0.576 -1.504,1.024c-0.405,0.448 -0.725,0.981 -0.96,1.6c-0.234,0.597 -0.352,1.259 -0.352,1.984v0.224h9.12v-0.352c0,-1.472 -0.405,-2.645 -1.216,-3.52c-0.789,-0.896 -1.845,-1.344 -3.168,-1.344zM319.745,319.3119h-0.128c-1.003,2.048 -2.613,3.072 -4.832,3.072c-1.024,0 -1.952,-0.203 -2.784,-0.608c-0.832,-0.405 -1.547,-0.981 -2.144,-1.728c-0.576,-0.747 -1.024,-1.653 -1.344,-2.72c-0.299,-1.067 -0.448,-2.261 -0.448,-3.584c0,-1.323 0.149,-2.517 0.448,-3.584c0.32,-1.067 0.768,-1.973 1.344,-2.72c0.597,-0.747 1.312,-1.323 2.144,-1.728c0.832,-0.405 1.76,-0.608 2.784,-0.608c1.152,0 2.133,0.256 2.944,0.768c0.832,0.491 1.461,1.259 1.888,2.304h0.128v-9.856h2.56v23.68h-2.56zM315.489,320.0799c0.576,0 1.12,-0.075 1.632,-0.224c0.533,-0.149 0.992,-0.363 1.376,-0.64c0.384,-0.299 0.683,-0.651 0.896,-1.056c0.235,-0.427 0.352,-0.907 0.352,-1.44v-6.144c0,-0.448 -0.117,-0.864 -0.352,-1.248c-0.213,-0.405 -0.512,-0.747 -0.896,-1.024c-0.384,-0.277 -0.843,-0.491 -1.376,-0.64c-0.512,-0.171 -1.056,-0.256 -1.632,-0.256c-1.451,0 -2.592,0.459 -3.424,1.376c-0.832,0.896 -1.248,2.08 -1.248,3.552v2.816c0,1.472 0.416,2.667 1.248,3.584c0.832,0.896 1.973,1.344 3.424,1.344zM334.67,301.6159c-0.555,0 -0.96,-0.128 -1.216,-0.384c-0.235,-0.277 -0.352,-0.629 -0.352,-1.056v-0.416c0,-0.427 0.117,-0.768 0.352,-1.024c0.256,-0.277 0.661,-0.416 1.216,-0.416c0.555,0 0.949,0.139 1.184,0.416c0.256,0.256 0.384,0.597 0.384,1.024v0.416c0,0.427 -0.128,0.779 -0.384,1.056c-0.235,0.256 -0.629,0.384 -1.184,0.384zM333.39,305.4879h2.56v16.512h-2.56zM340.43,321.9999v-16.512h2.56v2.688h0.128c0.405,-0.939 0.971,-1.685 1.696,-2.24c0.747,-0.555 1.739,-0.832 2.976,-0.832c1.707,0 3.051,0.555 4.032,1.664c1.003,1.088 1.504,2.635 1.504,4.64v10.592h-2.56v-10.144c0,-2.965 -1.248,-4.448 -3.744,-4.448c-0.512,0 -1.013,0.064 -1.504,0.192c-0.469,0.128 -0.896,0.32 -1.28,0.576c-0.384,0.256 -0.693,0.587 -0.928,0.992c-0.213,0.384 -0.32,0.843 -0.32,1.376v11.456zM362.244,321.9999l4.48,-22.336h4.64l-3.648,18.24h8.192l-0.832,4.096zM383.947,322.3839c-2.069,0 -3.701,-0.608 -4.896,-1.824c-1.194,-1.237 -1.792,-2.965 -1.792,-5.184c0,-1.515 0.214,-2.912 0.64,-4.192c0.448,-1.301 1.056,-2.421 1.824,-3.36c0.768,-0.939 1.675,-1.675 2.72,-2.208c1.067,-0.533 2.23,-0.8 3.488,-0.8c2.07,0 3.702,0.619 4.896,1.856c1.195,1.216 1.792,2.933 1.792,5.152c0,1.515 -0.224,2.923 -0.672,4.224c-0.426,1.28 -1.024,2.389 -1.792,3.328c-0.768,0.939 -1.685,1.675 -2.752,2.208c-1.066,0.533 -2.218,0.8 -3.456,0.8zM384.107,318.7679c1.75,0 2.87,-1.227 3.36,-3.68l0.608,-3.008c0.022,-0.107 0.043,-0.245 0.064,-0.416c0.022,-0.171 0.032,-0.363 0.032,-0.576c0,-0.811 -0.202,-1.451 -0.608,-1.92c-0.405,-0.491 -1.002,-0.736 -1.792,-0.736c-1.749,0 -2.869,1.227 -3.36,3.68l-0.608,3.008c-0.021,0.107 -0.042,0.245 -0.064,0.416c-0.021,0.171 -0.032,0.363 -0.032,0.576c0,0.811 0.203,1.461 0.608,1.952c0.406,0.469 1.003,0.704 1.792,0.704zM393.099,321.9999l3.36,-16.8h4.48l-0.768,3.904h0.192c0.64,-1.344 1.398,-2.389 2.272,-3.136c0.875,-0.768 1.974,-1.152 3.296,-1.152c1.302,0 2.294,0.384 2.976,1.152c0.704,0.747 1.056,1.813 1.056,3.2c0,0.405 -0.032,0.8 -0.096,1.184c-0.042,0.363 -0.106,0.757 -0.192,1.184l-1.376,6.88h1.696l-0.704,3.584h-2.912c-0.853,0 -1.514,-0.213 -1.984,-0.64c-0.469,-0.448 -0.704,-1.045 -0.704,-1.792c0,-0.192 0.011,-0.363 0.032,-0.512c0.022,-0.171 0.043,-0.299 0.064,-0.384l1.312,-6.656c0.064,-0.299 0.118,-0.587 0.16,-0.864c0.043,-0.299 0.064,-0.608 0.064,-0.928c0,-0.491 -0.128,-0.885 -0.384,-1.184c-0.256,-0.32 -0.693,-0.48 -1.312,-0.48c-0.554,0 -1.056,0.149 -1.504,0.448c-0.448,0.299 -0.853,0.661 -1.216,1.088c-0.384,0.448 -0.714,0.949 -0.992,1.504c-0.277,0.533 -0.48,1.12 -0.608,1.76l-1.728,8.64zM424.264,321.9999c-0.811,0 -1.483,-0.213 -2.016,-0.64c-0.534,-0.427 -0.8,-1.035 -0.8,-1.824c0,-0.171 0.01,-0.352 0.032,-0.544c0.021,-0.192 0.042,-0.331 0.064,-0.416l0.096,-0.48h-0.192c-0.662,1.365 -1.408,2.421 -2.24,3.168c-0.832,0.747 -1.91,1.12 -3.232,1.12c-0.79,0 -1.472,-0.139 -2.048,-0.416c-0.555,-0.299 -1.014,-0.704 -1.376,-1.216c-0.363,-0.533 -0.63,-1.152 -0.8,-1.856c-0.171,-0.725 -0.256,-1.504 -0.256,-2.336c0,-1.792 0.202,-3.403 0.608,-4.832c0.426,-1.451 0.992,-2.688 1.696,-3.712c0.704,-1.024 1.525,-1.813 2.464,-2.368c0.96,-0.555 1.973,-0.832 3.04,-0.832c1.173,0 2.133,0.32 2.88,0.96c0.768,0.64 1.205,1.419 1.312,2.336h0.16l1.952,-9.792h4.48l-4.032,20.096h1.888l-0.704,3.584zM418.184,318.7039c0.576,0 1.098,-0.149 1.568,-0.448c0.469,-0.299 0.874,-0.661 1.216,-1.088c0.362,-0.427 0.672,-0.928 0.928,-1.504c0.277,-0.597 0.48,-1.205 0.608,-1.824l0.512,-2.56c0.17,-0.853 0.01,-1.525 -0.48,-2.016c-0.491,-0.512 -1.206,-0.768 -2.144,-0.768c-1.942,0 -3.168,1.248 -3.68,3.744l-0.448,2.24c-0.043,0.235 -0.086,0.533 -0.128,0.896c-0.043,0.363 -0.064,0.672 -0.064,0.928c0,0.747 0.181,1.333 0.544,1.76c0.384,0.427 0.906,0.64 1.568,0.64zM436.13,322.3839c-2.069,0 -3.701,-0.608 -4.896,-1.824c-1.195,-1.237 -1.792,-2.965 -1.792,-5.184c0,-1.515 0.213,-2.912 0.64,-4.192c0.448,-1.301 1.056,-2.421 1.824,-3.36c0.768,-0.939 1.675,-1.675 2.72,-2.208c1.067,-0.533 2.229,-0.8 3.488,-0.8c2.069,0 3.701,0.619 4.896,1.856c1.195,1.216 1.792,2.933 1.792,5.152c0,1.515 -0.224,2.923 -0.672,4.224c-0.427,1.28 -1.024,2.389 -1.792,3.328c-0.768,0.939 -1.685,1.675 -2.752,2.208c-1.067,0.533 -2.219,0.8 -3.456,0.8zM436.29,318.7679c1.749,0 2.869,-1.227 3.36,-3.68l0.608,-3.008c0.021,-0.107 0.043,-0.245 0.064,-0.416c0.021,-0.171 0.032,-0.363 0.032,-0.576c0,-0.811 -0.203,-1.451 -0.608,-1.92c-0.405,-0.491 -1.003,-0.736 -1.792,-0.736c-1.749,0 -2.869,1.227 -3.36,3.68l-0.608,3.008c-0.021,0.107 -0.043,0.245 -0.064,0.416c-0.021,0.171 -0.032,0.363 -0.032,0.576c0,0.811 0.203,1.461 0.608,1.952c0.405,0.469 1.003,0.704 1.792,0.704zM445.282,321.9999l3.36,-16.8h4.48l-0.768,3.904h0.192c0.64,-1.344 1.397,-2.389 2.272,-3.136c0.874,-0.768 1.973,-1.152 3.296,-1.152c1.301,0 2.293,0.384 2.976,1.152c0.704,0.747 1.056,1.813 1.056,3.2c0,0.405 -0.032,0.8 -0.096,1.184c-0.043,0.363 -0.107,0.757 -0.192,1.184l-1.376,6.88h1.696l-0.704,3.584h-2.912c-0.854,0 -1.515,-0.213 -1.984,-0.64c-0.47,-0.448 -0.704,-1.045 -0.704,-1.792c0,-0.192 0.01,-0.363 0.032,-0.512c0.021,-0.171 0.042,-0.299 0.064,-0.384l1.312,-6.656c0.064,-0.299 0.117,-0.587 0.16,-0.864c0.042,-0.299 0.064,-0.608 0.064,-0.928c0,-0.491 -0.128,-0.885 -0.384,-1.184c-0.256,-0.32 -0.694,-0.48 -1.312,-0.48c-0.555,0 -1.056,0.149 -1.504,0.448c-0.448,0.299 -0.854,0.661 -1.216,1.088c-0.384,0.448 -0.715,0.949 -0.992,1.504c-0.278,0.533 -0.48,1.12 -0.608,1.76l-1.728,8.64z" fill="#141313"/>
</g>
<g id="Button">
<g id="Button_2">
<rect width="258" height="56" transform="translate(0, 373.9999)" fill="#141313"/>
<path id="Let’s talk with me" d="M41.548,408.9999v-12.564h2.034v10.764h5.112v1.8zM54.129,409.2159c-0.672,0 -1.272,-0.114 -1.8,-0.342c-0.528,-0.228 -0.978,-0.552 -1.35,-0.972c-0.372,-0.432 -0.66,-0.948 -0.864,-1.548c-0.192,-0.612 -0.288,-1.29 -0.288,-2.034c0,-0.744 0.096,-1.416 0.288,-2.016c0.204,-0.612 0.492,-1.128 0.864,-1.548c0.372,-0.432 0.822,-0.762 1.35,-0.99c0.528,-0.228 1.128,-0.342 1.8,-0.342c0.684,0 1.284,0.12 1.8,0.36c0.528,0.24 0.966,0.576 1.314,1.008c0.348,0.42 0.606,0.912 0.774,1.476c0.18,0.564 0.27,1.17 0.27,1.818v0.738h-6.426v0.306c0,0.72 0.21,1.314 0.63,1.782c0.432,0.456 1.044,0.684 1.836,0.684c0.576,0 1.062,-0.126 1.458,-0.378c0.396,-0.252 0.732,-0.594 1.008,-1.026l1.152,1.134c-0.348,0.576 -0.852,1.038 -1.512,1.386c-0.66,0.336 -1.428,0.504 -2.304,0.504zM54.129,400.9539c-0.336,0 -0.648,0.06 -0.936,0.18c-0.276,0.12 -0.516,0.288 -0.72,0.504c-0.192,0.216 -0.342,0.474 -0.45,0.774c-0.108,0.3 -0.162,0.63 -0.162,0.99v0.126h4.356v-0.18c0,-0.72 -0.186,-1.296 -0.558,-1.728c-0.372,-0.444 -0.882,-0.666 -1.53,-0.666zM63.051,408.9999c-0.684,0 -1.2,-0.174 -1.548,-0.522c-0.348,-0.36 -0.522,-0.864 -0.522,-1.512v-5.724h-1.458v-1.602h0.792c0.324,0 0.546,-0.072 0.666,-0.216c0.132,-0.144 0.198,-0.378 0.198,-0.702v-1.638h1.764v2.556h1.962v1.602h-1.962v6.156h1.818v1.602zM68.485,395.4999c0.456,0 0.786,0.108 0.99,0.324c0.204,0.216 0.306,0.498 0.306,0.846v0.306c0,0.288 -0.042,0.588 -0.126,0.9c-0.084,0.3 -0.204,0.6 -0.36,0.9c-0.156,0.3 -0.342,0.588 -0.558,0.864c-0.216,0.276 -0.456,0.522 -0.72,0.738h-1.404c0.384,-0.372 0.696,-0.738 0.936,-1.098c0.24,-0.36 0.426,-0.75 0.558,-1.17c-0.312,-0.06 -0.546,-0.192 -0.702,-0.396c-0.144,-0.204 -0.216,-0.444 -0.216,-0.72v-0.324c0,-0.348 0.102,-0.63 0.306,-0.846c0.204,-0.216 0.534,-0.324 0.99,-0.324zM74.31,409.2159c-0.888,0 -1.632,-0.156 -2.232,-0.468c-0.6,-0.312 -1.122,-0.744 -1.566,-1.296l1.26,-1.152c0.348,0.42 0.732,0.75 1.152,0.99c0.432,0.228 0.93,0.342 1.494,0.342c0.576,0 1.002,-0.108 1.278,-0.324c0.288,-0.228 0.432,-0.54 0.432,-0.936c0,-0.3 -0.102,-0.552 -0.306,-0.756c-0.192,-0.216 -0.534,-0.354 -1.026,-0.414l-0.864,-0.108c-0.96,-0.12 -1.716,-0.396 -2.268,-0.828c-0.54,-0.444 -0.81,-1.098 -0.81,-1.962c0,-0.456 0.084,-0.858 0.252,-1.206c0.168,-0.36 0.402,-0.66 0.702,-0.9c0.312,-0.252 0.678,-0.444 1.098,-0.576c0.432,-0.132 0.906,-0.198 1.422,-0.198c0.84,0 1.524,0.132 2.052,0.396c0.54,0.264 1.02,0.63 1.44,1.098l-1.206,1.152c-0.24,-0.288 -0.558,-0.534 -0.954,-0.738c-0.384,-0.216 -0.828,-0.324 -1.332,-0.324c-0.54,0 -0.942,0.108 -1.206,0.324c-0.252,0.216 -0.378,0.498 -0.378,0.846c0,0.36 0.114,0.63 0.342,0.81c0.228,0.18 0.594,0.312 1.098,0.396l0.864,0.108c1.032,0.156 1.782,0.462 2.25,0.918c0.48,0.444 0.72,1.044 0.72,1.8c0,0.456 -0.09,0.87 -0.27,1.242c-0.168,0.36 -0.414,0.672 -0.738,0.936c-0.324,0.264 -0.714,0.468 -1.17,0.612c-0.456,0.144 -0.966,0.216 -1.53,0.216zM87.08,408.9999c-0.684,0 -1.2,-0.174 -1.548,-0.522c-0.348,-0.36 -0.522,-0.864 -0.522,-1.512v-5.724h-1.458v-1.602h0.792c0.324,0 0.546,-0.072 0.666,-0.216c0.132,-0.144 0.198,-0.378 0.198,-0.702v-1.638h1.764v2.556h1.962v1.602h-1.962v6.156h1.818v1.602zM97.92,408.9999c-0.516,0 -0.912,-0.144 -1.188,-0.432c-0.276,-0.3 -0.444,-0.678 -0.504,-1.134h-0.09c-0.18,0.588 -0.51,1.032 -0.99,1.332c-0.48,0.3 -1.062,0.45 -1.746,0.45c-0.972,0 -1.722,-0.252 -2.25,-0.756c-0.516,-0.504 -0.774,-1.182 -0.774,-2.034c0,-0.936 0.336,-1.638 1.008,-2.106c0.684,-0.468 1.68,-0.702 2.988,-0.702h1.692v-0.792c0,-0.576 -0.156,-1.02 -0.468,-1.332c-0.312,-0.312 -0.798,-0.468 -1.458,-0.468c-0.552,0 -1.002,0.12 -1.35,0.36c-0.348,0.24 -0.642,0.546 -0.882,0.918l-1.17,-1.062c0.312,-0.528 0.75,-0.96 1.314,-1.296c0.564,-0.348 1.302,-0.522 2.214,-0.522c1.212,0 2.142,0.282 2.79,0.846c0.648,0.564 0.972,1.374 0.972,2.43v4.698h0.99v1.602zM93.96,407.7219c0.612,0 1.116,-0.132 1.512,-0.396c0.396,-0.276 0.594,-0.642 0.594,-1.098v-1.35h-1.656c-1.356,0 -2.034,0.42 -2.034,1.26v0.324c0,0.42 0.138,0.738 0.414,0.954c0.288,0.204 0.678,0.306 1.17,0.306zM102.939,408.9999c-0.672,0 -1.176,-0.168 -1.512,-0.504c-0.324,-0.348 -0.486,-0.828 -0.486,-1.44v-11.376h1.962v11.718h1.296v1.602zM106.074,395.6799h1.962v8.172h0.09l1.296,-1.674l2.25,-2.538h2.286l-3.276,3.618l3.672,5.742h-2.34l-2.682,-4.464l-1.296,1.404v3.06h-1.962zM119.236,399.6399h1.908l0.954,3.924l0.846,3.546h0.054l0.972,-3.546l1.134,-3.924h1.764l1.152,3.924l0.99,3.546h0.054l0.828,-3.546l0.972,-3.924h1.818l-2.52,9.36h-2.214l-1.224,-4.266l-0.756,-2.628h-0.036l-0.738,2.628l-1.242,4.266h-2.16zM135.54,397.9659c-0.408,0 -0.708,-0.096 -0.9,-0.288c-0.18,-0.192 -0.27,-0.438 -0.27,-0.738v-0.306c0,-0.3 0.09,-0.546 0.27,-0.738c0.192,-0.192 0.492,-0.288 0.9,-0.288c0.408,0 0.702,0.096 0.882,0.288c0.18,0.192 0.27,0.438 0.27,0.738v0.306c0,0.3 -0.09,0.546 -0.27,0.738c-0.18,0.192 -0.474,0.288 -0.882,0.288zM134.55,399.6399h1.962v9.36h-1.962zM141.906,408.9999c-0.684,0 -1.2,-0.174 -1.548,-0.522c-0.348,-0.36 -0.522,-0.864 -0.522,-1.512v-5.724h-1.458v-1.602h0.792c0.324,0 0.546,-0.072 0.666,-0.216c0.132,-0.144 0.198,-0.378 0.198,-0.702v-1.638h1.764v2.556h1.962v1.602h-1.962v6.156h1.818v1.602zM145.888,395.6799h1.962v5.508h0.09c0.204,-0.504 0.51,-0.924 0.918,-1.26c0.42,-0.336 0.99,-0.504 1.71,-0.504c0.96,0 1.704,0.318 2.232,0.954c0.54,0.624 0.81,1.518 0.81,2.682v5.94h-1.962v-5.706c0,-1.452 -0.588,-2.178 -1.764,-2.178c-0.252,0 -0.504,0.036 -0.756,0.108c-0.24,0.06 -0.456,0.156 -0.648,0.288c-0.192,0.132 -0.348,0.3 -0.468,0.504c-0.108,0.204 -0.162,0.438 -0.162,0.702v6.282h-1.962zM160.584,408.9999v-9.36h1.962v1.548h0.09c0.096,-0.24 0.21,-0.468 0.342,-0.684c0.144,-0.216 0.312,-0.402 0.504,-0.558c0.204,-0.168 0.438,-0.294 0.702,-0.378c0.276,-0.096 0.594,-0.144 0.954,-0.144c0.636,0 1.2,0.156 1.692,0.468c0.492,0.312 0.852,0.792 1.08,1.44h0.054c0.168,-0.528 0.492,-0.978 0.972,-1.35c0.48,-0.372 1.098,-0.558 1.854,-0.558c0.936,0 1.662,0.318 2.178,0.954c0.516,0.624 0.774,1.518 0.774,2.682v5.94h-1.962v-5.706c0,-0.72 -0.138,-1.26 -0.414,-1.62c-0.276,-0.372 -0.714,-0.558 -1.314,-0.558c-0.252,0 -0.492,0.036 -0.72,0.108c-0.228,0.06 -0.432,0.156 -0.612,0.288c-0.168,0.132 -0.306,0.3 -0.414,0.504c-0.108,0.204 -0.162,0.438 -0.162,0.702v6.282h-1.962v-5.706c0,-1.452 -0.57,-2.178 -1.71,-2.178c-0.24,0 -0.48,0.036 -0.72,0.108c-0.228,0.06 -0.432,0.156 -0.612,0.288c-0.18,0.132 -0.324,0.3 -0.432,0.504c-0.108,0.204 -0.162,0.438 -0.162,0.702v6.282zM180.129,409.2159c-0.672,0 -1.272,-0.114 -1.8,-0.342c-0.528,-0.228 -0.978,-0.552 -1.35,-0.972c-0.372,-0.432 -0.66,-0.948 -0.864,-1.548c-0.192,-0.612 -0.288,-1.29 -0.288,-2.034c0,-0.744 0.096,-1.416 0.288,-2.016c0.204,-0.612 0.492,-1.128 0.864,-1.548c0.372,-0.432 0.822,-0.762 1.35,-0.99c0.528,-0.228 1.128,-0.342 1.8,-0.342c0.684,0 1.284,0.12 1.8,0.36c0.528,0.24 0.966,0.576 1.314,1.008c0.348,0.42 0.606,0.912 0.774,1.476c0.18,0.564 0.27,1.17 0.27,1.818v0.738h-6.426v0.306c0,0.72 0.21,1.314 0.63,1.782c0.432,0.456 1.044,0.684 1.836,0.684c0.576,0 1.062,-0.126 1.458,-0.378c0.396,-0.252 0.732,-0.594 1.008,-1.026l1.152,1.134c-0.348,0.576 -0.852,1.038 -1.512,1.386c-0.66,0.336 -1.428,0.504 -2.304,0.504zM180.129,400.9539c-0.336,0 -0.648,0.06 -0.936,0.18c-0.276,0.12 -0.516,0.288 -0.72,0.504c-0.192,0.216 -0.342,0.474 -0.45,0.774c-0.108,0.3 -0.162,0.63 -0.162,0.99v0.126h4.356v-0.18c0,-0.72 -0.186,-1.296 -0.558,-1.728c-0.372,-0.444 -0.882,-0.666 -1.53,-0.666z" fill="white"/>
<g id="north_east">
<rect width="24" height="24" transform="translate(194, 389.9999)" fill="url(#paint5_linear_6_493)"/>
<path id="Vector_13" d="M203,394.7999v1.92h6.326l-11.126,11.127l1.354,1.353l11.126,-11.126v6.326h1.92v-9.6z" fill="white"/>
</g>
</g>
</g>
</g></svg>