<svg viewBox="0 0 40 40" fill="none" xmlns="http://www.w3.org/2000/svg" xmlns:xlink="http://www.w3.org/1999/xlink" x="0" y="0"><g id="Goggle_2">
<circle id="Ellipse 8_4" cx="20" cy="20" r="20" fill="white"/>
<path id="Vector_14" d="M23.364,13.926h5.4897v1.35h-5.4897zM17.8633,19.268c1.2135,-0.589 1.8491,-1.484 1.8491,-2.868c0,-2.736 -2.0087,-3.4 -4.3284,-3.4h-6.384v13.735h6.5629c2.46,0 4.7687,-1.199 4.7687,-3.989c0,-1.724 -0.8035,-2.998 -2.4683,-3.478zM11.9774,15.343h2.793c1.0759,0 2.0417,0.304 2.0417,1.571c0,1.165 -0.7512,1.634 -1.8161,1.634h-3.0186zM15.1556,24.403h-3.181v-3.782h3.2443c1.3098,0 2.1381,0.555 2.1381,1.961c0,1.383 -0.9879,1.821 -2.2014,1.821zM31,21.907c0,-2.943 -1.6978,-5.395 -4.7687,-5.395c-2.9856,0 -5.0164,2.279 -5.0164,5.266c0,3.096 1.9234,5.222 5.0164,5.222c2.3417,0 3.8579,-1.068 4.5871,-3.347h-2.3747c-0.2587,0.85 -1.3099,1.297 -2.1271,1.297c-1.5795,0 -2.405,-0.937 -2.405,-2.53h7.0691c0.0083,-0.165 0.0193,-0.338 0.0193,-0.513zM23.9116,20.696c0.0853,-1.308 0.9466,-2.126 2.2344,-2.126c1.3538,0 2.0307,0.807 2.1491,2.126z" fill="currentColor"/>
</g></svg>