<svg viewBox="0 0 40 40" fill="none" xmlns="http://www.w3.org/2000/svg" xmlns:xlink="http://www.w3.org/1999/xlink" x="0" y="0"><g id="icon_2">
<circle id="Ellipse 8_5" cx="20" cy="20" r="20" fill="white"/>
<path id="Vector_15" d="M28.66,14.98c-0.894,-1.533 -2.107,-2.747 -3.641,-3.64c-1.533,-0.893 -3.206,-1.34 -5.019,-1.34c-1.813,0 -3.486,0.447 -5.02,1.34c-1.533,0.893 -2.747,2.107 -3.64,3.64c-0.893,1.533 -1.34,3.207 -1.34,5.02c0,1.813 0.446,3.487 1.34,5.02c0.894,1.534 2.107,2.747 3.641,3.64c1.533,0.893 3.206,1.34 5.019,1.34c1.813,0 3.486,-0.447 5.02,-1.34c1.533,-0.893 2.747,-2.106 3.641,-3.64c0.893,-1.533 1.339,-3.207 1.339,-5.02c0,-1.813 -0.446,-3.487 -1.34,-5.02zM20,11.66c2,0 3.772,0.64 5.32,1.919c-0.92,1.174 -2.286,2.14 -4.1,2.9c-1.002,-1.813 -2.088,-3.327 -3.261,-4.54c0.682,-0.186 1.36,-0.279 2.041,-0.279zM13.51,14.8c0.754,-0.947 1.656,-1.686 2.711,-2.22c1.212,1.201 2.325,2.7 3.34,4.5c-2,0.6 -4.114,0.9 -6.341,0.9c-0.573,0 -1.006,-0.013 -1.3,-0.04c0.307,-1.147 0.837,-2.193 1.59,-3.14zM11.66,20c0,-0.054 0.003,-0.12 0.01,-0.2c0.007,-0.08 0.01,-0.146 0.01,-0.2c0.254,0.014 0.641,0.02 1.161,0.02c2.666,0 5.146,-0.367 7.439,-1.1c0.187,0.373 0.381,0.793 0.58,1.26c-1.32,0.293 -2.674,1.006 -4.061,2.14c-1.387,1.134 -2.399,2.327 -3.039,3.58c-1.4,-1.587 -2.1,-3.42 -2.1,-5.5zM20,28.34c-1.894,0 -3.594,-0.587 -5.101,-1.759c0.601,-1.187 1.524,-2.322 2.771,-3.401c1.246,-1.08 2.483,-1.753 3.71,-2.02c0.772,2.133 1.293,4.339 1.56,6.62c-0.974,0.373 -1.954,0.56 -2.94,0.56zM27.08,24.38c-0.666,1.066 -1.526,1.94 -2.58,2.621c-0.24,-2.08 -0.7,-4.107 -1.379,-6.081c0.932,-0.066 1.765,-0.1 2.5,-0.1c0.799,0 1.686,0.034 2.659,0.1c-0.134,1.24 -0.534,2.393 -1.2,3.46zM25.84,19.38c-1.16,0 -2.233,0.047 -3.22,0.14c-0.254,-0.653 -0.48,-1.193 -0.68,-1.62c2.066,-0.906 3.532,-2.006 4.399,-3.3c1.2,1.414 1.854,3.027 1.96,4.84c-0.812,-0.04 -1.632,-0.06 -2.459,-0.06z" fill="currentColor"/>
</g></svg>