<svg viewBox="0 0 40 40" fill="none" xmlns="http://www.w3.org/2000/svg" xmlns:xlink="http://www.w3.org/1999/xlink" x="0" y="0"><g id="Instagram_2">
<circle id="Ellipse 8_6" cx="20" cy="20" r="20" fill="white"/>
<g id="instagram icon_2">
<path id="Vector_16" d="M29.9801,15.507c-0.0476,-1.09 -0.2221,-1.84 -0.4721,-2.49c-0.258,-0.69 -0.6548,-1.307 -1.1747,-1.821c-0.508,-0.521 -1.1231,-0.926 -1.7977,-1.183c-0.6468,-0.252 -1.3849,-0.429 -2.4643,-0.477c-1.0874,-0.052 -1.4327,-0.064 -4.1907,-0.064c-2.758,0 -3.1032,0.012 -4.1866,0.06c-1.0794,0.048 -1.8214,0.225 -2.4643,0.477c-0.6827,0.261 -1.2937,0.662 -1.8017,1.187c-0.5159,0.514 -0.9166,1.135 -1.1707,1.817c-0.25,0.654 -0.4246,1.4 -0.4722,2.49c-0.0516,1.099 -0.0635,1.448 -0.0635,4.235c0,2.787 0.0119,3.136 0.0595,4.231c0.0476,1.091 0.2223,1.84 0.4723,2.49c0.258,0.69 0.6587,1.307 1.1746,1.821c0.508,0.521 1.1231,0.926 1.7977,1.183c0.6469,0.252 1.3849,0.429 2.4644,0.477c1.0833,0.048 1.4286,0.06 4.1866,0.06c2.7581,0 3.1033,-0.012 4.1867,-0.06c1.0793,-0.048 1.8214,-0.225 2.4643,-0.477c1.3652,-0.534 2.4445,-1.624 2.9724,-3.004c0.2498,-0.654 0.4245,-1.399 0.4721,-2.49c0.0476,-1.095 0.0596,-1.444 0.0596,-4.231c0,-2.787 -0.0041,-3.136 -0.0517,-4.231zM28.1508,23.889c-0.0437,1.002 -0.2103,1.543 -0.3492,1.904c-0.3414,0.895 -1.0438,1.604 -1.9287,1.949c-0.3572,0.141 -0.8968,0.309 -1.885,0.353c-1.0715,0.048 -1.3928,0.06 -4.1032,0.06c-2.7105,0 -3.0359,-0.012 -4.1034,-0.06c-0.9921,-0.044 -1.5279,-0.212 -1.885,-0.353c-0.4404,-0.164 -0.8413,-0.425 -1.1667,-0.766c-0.3373,-0.332 -0.5952,-0.733 -0.758,-1.179c-0.1389,-0.36 -0.3055,-0.906 -0.3491,-1.904c-0.0477,-1.083 -0.0595,-1.408 -0.0595,-4.147c0,-2.739 0.0118,-3.068 0.0595,-4.146c0.0436,-1.003 0.2102,-1.544 0.3491,-1.905c0.1628,-0.445 0.4207,-0.85 0.7621,-1.179c0.3292,-0.341 0.7261,-0.602 1.1666,-0.766c0.3572,-0.14 0.8969,-0.309 1.885,-0.353c1.0715,-0.048 1.393,-0.06 4.1032,-0.06c2.7145,0 3.0358,0.012 4.1034,0.06c0.9921,0.044 1.5278,0.213 1.885,0.353c0.4404,0.164 0.8413,0.425 1.1666,0.766c0.3374,0.333 0.5953,0.734 0.7581,1.179c0.1389,0.361 0.3055,0.906 0.3492,1.905c0.0476,1.082 0.0595,1.407 0.0595,4.146c0,2.739 -0.0119,3.06 -0.0595,4.143z" fill="currentColor"/>
<path id="Vector_17" d="M19.8791,14.465c-2.881,0 -5.2184,2.362 -5.2184,5.273c0,2.912 2.3374,5.274 5.2184,5.274c2.8811,0 5.2184,-2.362 5.2184,-5.274c0,-2.911 -2.3373,-5.273 -5.2184,-5.273zM19.8791,23.159c-1.869,0 -3.3851,-1.532 -3.3851,-3.421c0,-1.889 1.5161,-3.42 3.3851,-3.42c1.8692,0 3.385,1.531 3.385,3.42c0,1.889 -1.5158,3.421 -3.385,3.421z" fill="currentColor"/>
<path id="Vector_18" d="M26.5242,14.256c0,0.68 -0.5454,1.231 -1.2182,1.231c-0.6726,0 -1.218,-0.551 -1.218,-1.231c0,-0.68 0.5454,-1.231 1.218,-1.231c0.6728,0 1.2182,0.551 1.2182,1.231z" fill="currentColor"/>
</g>
</g></svg>