<svg viewBox="0 0 32 32" fill="none" xmlns="http://www.w3.org/2000/svg" xmlns:xlink="http://www.w3.org/1999/xlink" x="0" y="0"><g id="Icon">
<circle id="Ellipse 11" cx="16" cy="15.999900000000025" r="16" fill="currentColor" fill-opacity="0.05"/>
<g id="Communications/Communication 50 - 24px">
<path id="Icon_2" fill-rule="evenodd" clip-rule="evenodd" d="M10.433,10.0029c1.512,-1.511 3.963,-1.511 5.475,0c1.512,1.512 1.512,3.963 0,5.475c-0.563,0.563 -1.256,0.916 -1.982,1.06l2.139,2.138c0.143,-0.726 0.497,-1.419 1.059,-1.982c1.512,-1.511 3.963,-1.511 5.475,0c1.511,1.512 1.511,3.963 0,5.475c-1.409,1.409 -3.634,1.504 -5.154,0.287l-0.016,0.017l-0.305,-0.304l-6.691,-6.691l-0.304,-0.304l0.017,-0.017c-1.217,-1.52 -1.121,-3.745 0.287,-5.154zM18.341,20.9519c0.84,0.84 2.201,0.84 3.041,0c0.84,-0.84 0.84,-2.201 0,-3.041c-0.84,-0.84 -2.201,-0.84 -3.041,0c-0.84,0.84 -0.84,2.201 0,3.041zM14.691,14.2609c-0.839,0.84 -2.201,0.84 -3.041,0c-0.84,-0.84 -0.84,-2.201 0,-3.041c0.84,-0.84 2.202,-0.84 3.041,0c0.84,0.84 0.84,2.201 0,3.041z" fill="currentColor"/>
</g>
</g></svg>